<?xml version="1.0" encoding="utf-8"?>
<svg version="1.1" xmlns:xlink="http://www.w3.org/1999/xlink" width="100px" height="51px" xmlns="http://www.w3.org/2000/svg">
  <g transform="matrix(1 0 0 1 -1414 -233 )">
    <path d="M 1424.5 283.5  L 1513.5 283.5  L 1513.5 243.5  L 1508.5 243.5  L 1508.5 238.5  L 1503.5 238.5  L 1503.5 233.5  L 1414.5 233.5  L 1414.5 273.5  L 1419.5 273.5  L 1419.5 278.5  L 1424.5 278.5  L 1424.5 283.5  Z " fill-rule="nonzero" fill="#ffffff" stroke="none" />
    <path d="M 1424.5 283.5  L 1513.5 283.5  L 1513.5 243.5  L 1508.5 243.5  L 1508.5 238.5  L 1503.5 238.5  L 1503.5 233.5  L 1414.5 233.5  L 1414.5 273.5  L 1419.5 273.5  L 1419.5 278.5  L 1424.5 278.5  L 1424.5 283.5  Z " stroke-width="1" stroke="#797979" fill="none" />
    <path d="M 1508.5 244  L 1508.5 278.5  L 1425 278.5  M 1503.5 239  L 1503.5 273.5  L 1420 273.5  " stroke-width="1" stroke="#797979" fill="none" />
  </g>
</svg>