<?xml version="1.0" encoding="utf-8"?>
<svg version="1.1" xmlns:xlink="http://www.w3.org/1999/xlink" width="375px" height="170px" xmlns="http://www.w3.org/2000/svg">
  <g transform="matrix(1 0 0 1 0 -98 )">
    <path d="M 0 98  L 375 98  L 375 268  L 0 268  L 0 98  " fill-rule="nonzero" fill="#cccccc" stroke="none" />
    <path d="M 12 110  L 363 110  L 363 256  L 12 256  L 12 110  " fill-rule="nonzero" fill="#ffffff" stroke="none" />
    <path d="M 207.75 149  C 200.61 149  195 143.39  195 136.25  C 195 129.11  200.61 123.5  207.75 123.5  C 214.89 123.5  220.5 129.11  220.5 136.25  C 220.5 143.39  214.89 149  207.75 149  " fill-rule="nonzero" fill="#cccccc" stroke="none" />
    <path d="M 17 252  L 17 176.64999999999998  L 102.5 142.39999999999998  L 222.2 214.736  L 290.6 162.95  L 359 214.736  L 359 252  L 17 252  " fill-rule="nonzero" fill="#169bd5" stroke="none" />
  </g>
</svg>