<?xml version="1.0" encoding="utf-8"?>
<svg version="1.1" xmlns:xlink="http://www.w3.org/1999/xlink" width="53px" height="53px" xmlns="http://www.w3.org/2000/svg">
  <g transform="matrix(1 0 0 1 -423 -287 )">
    <path d="M 449.5 287  C 464.34000000000003 287  476 298.66  476 313.5  C 476 328.34000000000003  464.34000000000003 340  449.5 340  C 434.66 340  423 328.34000000000003  423 313.5  C 423 298.66  434.66 287  449.5 287  Z " fill-rule="nonzero" fill="#ffffff" stroke="none" />
    <path d="M 449.5 287.5  C 464.06 287.5  475.5 298.94  475.5 313.5  C 475.5 328.06  464.06 339.5  449.5 339.5  C 434.94 339.5  423.5 328.06  423.5 313.5  C 423.5 298.94  434.94 287.5  449.5 287.5  Z " stroke-width="1" stroke="#797979" fill="none" />
  </g>
</svg>