<?xml version="1.0" encoding="utf-8"?>
<svg version="1.1" xmlns:xlink="http://www.w3.org/1999/xlink" width="848px" height="823px" xmlns="http://www.w3.org/2000/svg">
  <defs>
    <filter x="41px" y="876px" width="848px" height="823px" filterUnits="userSpaceOnUse" id="filter11">
      <feOffset dx="0" dy="0" in="SourceAlpha" result="shadowOffsetInner" />
      <feGaussianBlur stdDeviation="2.5" in="shadowOffsetInner" result="shadowGaussian" />
      <feComposite in2="shadowGaussian" operator="atop" in="SourceAlpha" result="shadowComposite" />
      <feColorMatrix type="matrix" values="0 0 0 0 0.8941176470588235  0 0 0 0 0.8941176470588235  0 0 0 0 0.8941176470588235  0 0 0 1 0  " in="shadowComposite" />
    </filter>
    <g id="widget12">
      <path d="M 47 893  A 11 11 0 0 1 58 882 L 872 882  A 11 11 0 0 1 883 893 L 883 1682  A 11 11 0 0 1 872 1693 L 58 1693  A 11 11 0 0 1 47 1682 L 47 893  Z " fill-rule="nonzero" fill="#ffffff" stroke="none" />
      <path d="M 46.5 893  A 11.5 11.5 0 0 1 58 881.5 L 872 881.5  A 11.5 11.5 0 0 1 883.5 893 L 883.5 1682  A 11.5 11.5 0 0 1 872 1693.5 L 58 1693.5  A 11.5 11.5 0 0 1 46.5 1682 L 46.5 893  Z " stroke-width="1" stroke="#f2f2f2" fill="none" stroke-opacity="0.9882352941176471" />
    </g>
  </defs>
  <g transform="matrix(1 0 0 1 -41 -876 )">
    <use xlink:href="#widget12" filter="url(#filter11)" />
    <use xlink:href="#widget12" />
  </g>
</svg>