<?xml version="1.0" encoding="utf-8"?>
<svg version="1.1" xmlns:xlink="http://www.w3.org/1999/xlink" width="553px" height="569px" xmlns="http://www.w3.org/2000/svg">
  <defs>
    <filter x="1239px" y="315px" width="553px" height="569px" filterUnits="userSpaceOnUse" id="filter87">
      <feOffset dx="0" dy="0" in="SourceAlpha" result="shadowOffsetInner" />
      <feGaussianBlur stdDeviation="2.5" in="shadowOffsetInner" result="shadowGaussian" />
      <feComposite in2="shadowGaussian" operator="atop" in="SourceAlpha" result="shadowComposite" />
      <feColorMatrix type="matrix" values="0 0 0 0 0.8941176470588235  0 0 0 0 0.8941176470588235  0 0 0 0 0.8941176470588235  0 0 0 1 0  " in="shadowComposite" />
    </filter>
    <g id="widget88">
      <path d="M 1245 332  A 11 11 0 0 1 1256 321 L 1775 321  A 11 11 0 0 1 1786 332 L 1786 867  A 11 11 0 0 1 1775 878 L 1256 878  A 11 11 0 0 1 1245 867 L 1245 332  Z " fill-rule="nonzero" fill="#ffffff" stroke="none" />
      <path d="M 1244.5 332  A 11.5 11.5 0 0 1 1256 320.5 L 1775 320.5  A 11.5 11.5 0 0 1 1786.5 332 L 1786.5 867  A 11.5 11.5 0 0 1 1775 878.5 L 1256 878.5  A 11.5 11.5 0 0 1 1244.5 867 L 1244.5 332  Z " stroke-width="1" stroke="#f2f2f2" fill="none" stroke-opacity="0.9882352941176471" />
    </g>
  </defs>
  <g transform="matrix(1 0 0 1 -1239 -315 )">
    <use xlink:href="#widget88" filter="url(#filter87)" />
    <use xlink:href="#widget88" />
  </g>
</svg>