<?xml version="1.0" encoding="utf-8"?>
<svg version="1.1" xmlns:xlink="http://www.w3.org/1999/xlink" width="1190px" height="404px" xmlns="http://www.w3.org/2000/svg">
  <defs>
    <filter x="41px" y="757px" width="1190px" height="404px" filterUnits="userSpaceOnUse" id="filter77">
      <feOffset dx="0" dy="0" in="SourceAlpha" result="shadowOffsetInner" />
      <feGaussianBlur stdDeviation="2.5" in="shadowOffsetInner" result="shadowGaussian" />
      <feComposite in2="shadowGaussian" operator="atop" in="SourceAlpha" result="shadowComposite" />
      <feColorMatrix type="matrix" values="0 0 0 0 0.8941176470588235  0 0 0 0 0.8941176470588235  0 0 0 0 0.8941176470588235  0 0 0 1 0  " in="shadowComposite" />
    </filter>
    <g id="widget78">
      <path d="M 47 774  A 11 11 0 0 1 58 763 L 1214 763  A 11 11 0 0 1 1225 774 L 1225 1144  A 11 11 0 0 1 1214 1155 L 58 1155  A 11 11 0 0 1 47 1144 L 47 774  Z " fill-rule="nonzero" fill="#ffffff" stroke="none" />
      <path d="M 46.5 774  A 11.5 11.5 0 0 1 58 762.5 L 1214 762.5  A 11.5 11.5 0 0 1 1225.5 774 L 1225.5 1144  A 11.5 11.5 0 0 1 1214 1155.5 L 58 1155.5  A 11.5 11.5 0 0 1 46.5 1144 L 46.5 774  Z " stroke-width="1" stroke="#f2f2f2" fill="none" stroke-opacity="0.9882352941176471" />
    </g>
  </defs>
  <g transform="matrix(1 0 0 1 -41 -757 )">
    <use xlink:href="#widget78" filter="url(#filter77)" />
    <use xlink:href="#widget78" />
  </g>
</svg>