<?xml version="1.0" encoding="utf-8"?>
<svg version="1.1" xmlns:xlink="http://www.w3.org/1999/xlink" width="1190px" height="375px" xmlns="http://www.w3.org/2000/svg">
  <defs>
    <filter x="41px" y="1205px" width="1190px" height="375px" filterUnits="userSpaceOnUse" id="filter87">
      <feOffset dx="0" dy="0" in="SourceAlpha" result="shadowOffsetInner" />
      <feGaussianBlur stdDeviation="2.5" in="shadowOffsetInner" result="shadowGaussian" />
      <feComposite in2="shadowGaussian" operator="atop" in="SourceAlpha" result="shadowComposite" />
      <feColorMatrix type="matrix" values="0 0 0 0 0.8941176470588235  0 0 0 0 0.8941176470588235  0 0 0 0 0.8941176470588235  0 0 0 1 0  " in="shadowComposite" />
    </filter>
    <g id="widget88">
      <path d="M 47 1222  A 11 11 0 0 1 58 1211 L 1214 1211  A 11 11 0 0 1 1225 1222 L 1225 1563  A 11 11 0 0 1 1214 1574 L 58 1574  A 11 11 0 0 1 47 1563 L 47 1222  Z " fill-rule="nonzero" fill="#ffffff" stroke="none" />
      <path d="M 46.5 1222  A 11.5 11.5 0 0 1 58 1210.5 L 1214 1210.5  A 11.5 11.5 0 0 1 1225.5 1222 L 1225.5 1563  A 11.5 11.5 0 0 1 1214 1574.5 L 58 1574.5  A 11.5 11.5 0 0 1 46.5 1563 L 46.5 1222  Z " stroke-width="1" stroke="#f2f2f2" fill="none" stroke-opacity="0.9882352941176471" />
    </g>
  </defs>
  <g transform="matrix(1 0 0 1 -41 -1205 )">
    <use xlink:href="#widget88" filter="url(#filter87)" />
    <use xlink:href="#widget88" />
  </g>
</svg>