<?xml version="1.0" encoding="utf-8"?>
<svg version="1.1" xmlns:xlink="http://www.w3.org/1999/xlink" width="208px" height="40px" xmlns="http://www.w3.org/2000/svg">
  <g transform="matrix(1 0 0 1 -449 -1259 )">
    <path d="M 450 1268  A 8 8 0 0 1 458 1260 L 648 1260  A 8 8 0 0 1 656 1268 L 656 1290  A 8 8 0 0 1 648 1298 L 458 1298  A 8 8 0 0 1 450 1290 L 450 1268  Z " fill-rule="nonzero" fill="#ffffff" stroke="none" />
    <path d="M 449.5 1268  A 8.5 8.5 0 0 1 458 1259.5 L 648 1259.5  A 8.5 8.5 0 0 1 656.5 1268 L 656.5 1290  A 8.5 8.5 0 0 1 648 1298.5 L 458 1298.5  A 8.5 8.5 0 0 1 449.5 1290 L 449.5 1268  Z " stroke-width="1" stroke-dasharray="9,4" stroke="#797979" fill="none" stroke-dashoffset="0.5" />
  </g>
</svg>