<?xml version="1.0" encoding="utf-8"?>
<svg version="1.1" xmlns:xlink="http://www.w3.org/1999/xlink" width="39px" height="32px" xmlns="http://www.w3.org/2000/svg">
  <g transform="matrix(1 0 0 1 -497 -130 )">
    <path d="M 497 130  L 536 130  L 536 162  L 497 162  L 497 130  " fill-rule="nonzero" fill="#cccccc" stroke="none" />
    <path d="M 499 132  L 534 132  L 534 160  L 499 160  L 499 132  " fill-rule="nonzero" fill="#ffffff" stroke="none" />
    <path d="M 519.68 139.60000000000002  C 518.336 139.60000000000002  517.28 138.544  517.28 137.20000000000002  C 517.28 135.85600000000002  518.336 134.8  519.68 134.8  C 521.0239999999999 134.8  522.0799999999999 135.85600000000002  522.0799999999999 137.20000000000002  C 522.0799999999999 138.544  521.0239999999999 139.60000000000002  519.68 139.60000000000002  " fill-rule="nonzero" fill="#cccccc" stroke="none" />
    <path d="M 500 159  L 500 144.7  L 508.25 138.2  L 519.8 146.2  L 526.4 142.1  L 533 146.2  L 533 159  L 500 159  " fill-rule="nonzero" fill="#169bd5" stroke="none" />
  </g>
</svg>