<?xml version="1.0" encoding="utf-8"?>
<svg version="1.1" xmlns:xlink="http://www.w3.org/1999/xlink" width="604px" height="442px" xmlns="http://www.w3.org/2000/svg">
  <defs>
    <filter x="98px" y="132px" width="604px" height="442px" filterUnits="userSpaceOnUse" id="filter21">
      <feOffset dx="0" dy="0" in="SourceAlpha" result="shadowOffsetInner" />
      <feGaussianBlur stdDeviation="2.5" in="shadowOffsetInner" result="shadowGaussian" />
      <feComposite in2="shadowGaussian" operator="atop" in="SourceAlpha" result="shadowComposite" />
      <feColorMatrix type="matrix" values="0 0 0 0 0.8941176470588235  0 0 0 0 0.8941176470588235  0 0 0 0 0.8941176470588235  0 0 0 1 0  " in="shadowComposite" />
    </filter>
    <g id="widget22">
      <path d="M 104 149  A 11 11 0 0 1 115 138 L 685 138  A 11 11 0 0 1 696 149 L 696 557  A 11 11 0 0 1 685 568 L 115 568  A 11 11 0 0 1 104 557 L 104 149  Z " fill-rule="nonzero" fill="#ffffff" stroke="none" />
      <path d="M 103.5 149  A 11.5 11.5 0 0 1 115 137.5 L 685 137.5  A 11.5 11.5 0 0 1 696.5 149 L 696.5 557  A 11.5 11.5 0 0 1 685 568.5 L 115 568.5  A 11.5 11.5 0 0 1 103.5 557 L 103.5 149  Z " stroke-width="1" stroke="#f2f2f2" fill="none" stroke-opacity="0.9882352941176471" />
    </g>
  </defs>
  <g transform="matrix(1 0 0 1 -98 -132 )">
    <use xlink:href="#widget22" filter="url(#filter21)" />
    <use xlink:href="#widget22" />
  </g>
</svg>