<?xml version="1.0" encoding="utf-8"?>
<svg version="1.1" xmlns:xlink="http://www.w3.org/1999/xlink" width="88px" height="80px" xmlns="http://www.w3.org/2000/svg">
  <g transform="matrix(1 0 0 1 -757 -367 )">
    <path d="M 757 367  L 845 367  L 845 447  L 757 447  L 757 367  " fill-rule="nonzero" fill="#cccccc" stroke="none" />
    <path d="M 763 373  L 839 373  L 839 441  L 763 441  L 763 373  " fill-rule="nonzero" fill="#ffffff" stroke="none" />
    <path d="M 808.76 391  C 805.4 391  802.76 388.36  802.76 385  C 802.76 381.64  805.4 379  808.76 379  C 812.12 379  814.76 381.64  814.76 385  C 814.76 388.36  812.12 391  808.76 391  " fill-rule="nonzero" fill="#cccccc" stroke="none" />
    <path d="M 765 439  L 765 403.8  L 783 387.8  L 808.2 404.0909090909091  L 822.6 397.4  L 837 404.0909090909091  L 837 439  L 765 439  " fill-rule="nonzero" fill="#169bd5" stroke="none" />
  </g>
</svg>