<?xml version="1.0" encoding="utf-8"?>
<svg version="1.1" xmlns:xlink="http://www.w3.org/1999/xlink" width="612px" height="470px" xmlns="http://www.w3.org/2000/svg">
  <defs>
    <filter x="153px" y="954px" width="612px" height="470px" filterUnits="userSpaceOnUse" id="filter67">
      <feOffset dx="0" dy="0" in="SourceAlpha" result="shadowOffsetInner" />
      <feGaussianBlur stdDeviation="2.5" in="shadowOffsetInner" result="shadowGaussian" />
      <feComposite in2="shadowGaussian" operator="atop" in="SourceAlpha" result="shadowComposite" />
      <feColorMatrix type="matrix" values="0 0 0 0 0.8941176470588235  0 0 0 0 0.8941176470588235  0 0 0 0 0.8941176470588235  0 0 0 1 0  " in="shadowComposite" />
    </filter>
    <g id="widget68">
      <path d="M 159 971  A 11 11 0 0 1 170 960 L 748 960  A 11 11 0 0 1 759 971 L 759 1407  A 11 11 0 0 1 748 1418 L 170 1418  A 11 11 0 0 1 159 1407 L 159 971  Z " fill-rule="nonzero" fill="#ffffff" stroke="none" />
      <path d="M 158.5 971  A 11.5 11.5 0 0 1 170 959.5 L 748 959.5  A 11.5 11.5 0 0 1 759.5 971 L 759.5 1407  A 11.5 11.5 0 0 1 748 1418.5 L 170 1418.5  A 11.5 11.5 0 0 1 158.5 1407 L 158.5 971  Z " stroke-width="1" stroke="#f2f2f2" fill="none" stroke-opacity="0.9882352941176471" />
    </g>
  </defs>
  <g transform="matrix(1 0 0 1 -153 -954 )">
    <use xlink:href="#widget68" filter="url(#filter67)" />
    <use xlink:href="#widget68" />
  </g>
</svg>