<?xml version="1.0" encoding="utf-8"?>
<svg version="1.1" xmlns:xlink="http://www.w3.org/1999/xlink" width="42px" height="45px" xmlns="http://www.w3.org/2000/svg">
  <g transform="matrix(1 0 0 1 -38 -85 )">
    <path d="M 59 85  C 70.75999999999999 85  80 94.9  80 107.5  C 80 120.1  70.75999999999999 130  59 130  C 47.239999999999995 130  38 120.1  38 107.5  C 38 94.9  47.239999999999995 85  59 85  Z " fill-rule="nonzero" fill="#ffffff" stroke="none" />
    <path d="M 59 85.5  C 70.48 85.5  79.5 95.18  79.5 107.5  C 79.5 119.82  70.48 129.5  59 129.5  C 47.519999999999996 129.5  38.5 119.82  38.5 107.5  C 38.5 95.18  47.519999999999996 85.5  59 85.5  Z " stroke-width="1" stroke="#797979" fill="none" />
  </g>
</svg>