<?xml version="1.0" encoding="utf-8"?>
<svg version="1.1" xmlns:xlink="http://www.w3.org/1999/xlink" width="42px" height="45px" xmlns="http://www.w3.org/2000/svg">
  <g transform="matrix(1 0 0 1 -827 -235 )">
    <path d="M 848 235  C 859.76 235  869 244.9  869 257.5  C 869 270.1  859.76 280  848 280  C 836.24 280  827 270.1  827 257.5  C 827 244.9  836.24 235  848 235  Z " fill-rule="nonzero" fill="#ffffff" stroke="none" />
    <path d="M 848 235.5  C 859.48 235.5  868.5 245.18  868.5 257.5  C 868.5 269.82  859.48 279.5  848 279.5  C 836.52 279.5  827.5 269.82  827.5 257.5  C 827.5 245.18  836.52 235.5  848 235.5  Z " stroke-width="1" stroke="#797979" fill="none" />
  </g>
</svg>