<?xml version="1.0" encoding="utf-8"?>
<svg version="1.1" xmlns:xlink="http://www.w3.org/1999/xlink" width="13px" height="13px" viewBox="1569 162  13 13" xmlns="http://www.w3.org/2000/svg">
  <path d="M 1575.5 162  C 1579.14 162  1582 164.86  1582 168.5  C 1582 172.14  1579.14 175  1575.5 175  C 1571.86 175  1569 172.14  1569 168.5  C 1569 164.86  1571.86 162  1575.5 162  Z " fill-rule="nonzero" fill="#ffffff" stroke="none" />
  <path d="M 1575.5 162.5  C 1578.86 162.5  1581.5 165.14  1581.5 168.5  C 1581.5 171.86  1578.86 174.5  1575.5 174.5  C 1572.14 174.5  1569.5 171.86  1569.5 168.5  C 1569.5 165.14  1572.14 162.5  1575.5 162.5  Z " stroke-width="1" stroke="#797979" fill="none" />
  <path d="M 1575.5 171.75  C 1573.68 171.75  1572.25 170.32  1572.25 168.5  C 1572.25 166.68  1573.68 165.25  1575.5 165.25  C 1577.32 165.25  1578.75 166.68  1578.75 168.5  C 1578.75 170.32  1577.32 171.75  1575.5 171.75  " fill-rule="nonzero" fill="#797979" stroke="none" />
</svg>