<?xml version="1.0" encoding="utf-8"?>
<svg version="1.1" xmlns:xlink="http://www.w3.org/1999/xlink" width="13px" height="13px" viewBox="1510 162  13 13" xmlns="http://www.w3.org/2000/svg">
  <path d="M 1516.5 162  C 1520.14 162  1523 164.86  1523 168.5  C 1523 172.14  1520.14 175  1516.5 175  C 1512.86 175  1510 172.14  1510 168.5  C 1510 164.86  1512.86 162  1516.5 162  Z " fill-rule="nonzero" fill="#ffffff" stroke="none" />
  <path d="M 1516.5 162.5  C 1519.86 162.5  1522.5 165.14  1522.5 168.5  C 1522.5 171.86  1519.86 174.5  1516.5 174.5  C 1513.14 174.5  1510.5 171.86  1510.5 168.5  C 1510.5 165.14  1513.14 162.5  1516.5 162.5  Z " stroke-width="1" stroke="#797979" fill="none" />
  <path d="M 1516.5 171.75  C 1514.68 171.75  1513.25 170.32  1513.25 168.5  C 1513.25 166.68  1514.68 165.25  1516.5 165.25  C 1518.32 165.25  1519.75 166.68  1519.75 168.5  C 1519.75 170.32  1518.32 171.75  1516.5 171.75  " fill-rule="nonzero" fill="#797979" stroke="none" />
</svg>