<?xml version="1.0" encoding="utf-8"?>
<svg version="1.1" xmlns:xlink="http://www.w3.org/1999/xlink" width="13px" height="13px" viewBox="1510 132  13 13" xmlns="http://www.w3.org/2000/svg">
  <path d="M 1516.5 132  C 1520.14 132  1523 134.86  1523 138.5  C 1523 142.14  1520.14 145  1516.5 145  C 1512.86 145  1510 142.14  1510 138.5  C 1510 134.86  1512.86 132  1516.5 132  Z " fill-rule="nonzero" fill="#f0f0f0" stroke="none" />
  <path d="M 1516.5 132.5  C 1519.86 132.5  1522.5 135.14  1522.5 138.5  C 1522.5 141.86  1519.86 144.5  1516.5 144.5  C 1513.14 144.5  1510.5 141.86  1510.5 138.5  C 1510.5 135.14  1513.14 132.5  1516.5 132.5  Z " stroke-width="1" stroke="#797979" fill="none" />
  <path d="M 1516.5 141.75  C 1514.68 141.75  1513.25 140.32  1513.25 138.5  C 1513.25 136.68  1514.68 135.25  1516.5 135.25  C 1518.32 135.25  1519.75 136.68  1519.75 138.5  C 1519.75 140.32  1518.32 141.75  1516.5 141.75  " fill-rule="nonzero" fill="#797979" stroke="none" />
</svg>