<?xml version="1.0" encoding="utf-8"?>
<svg version="1.1" xmlns:xlink="http://www.w3.org/1999/xlink" width="52px" height="52px" xmlns="http://www.w3.org/2000/svg">
  <g transform="matrix(1 0 0 1 -23 -56 )">
    <path d="M 49 56  C 63.56 56  75 67.44  75 82  C 75 96.56  63.56 108  49 108  C 34.44 108  23 96.56  23 82  C 23 67.44  34.44 56  49 56  Z " fill-rule="nonzero" fill="#ffffff" stroke="none" />
    <path d="M 49 56.5  C 63.28 56.5  74.5 67.72  74.5 82  C 74.5 96.28  63.28 107.5  49 107.5  C 34.72 107.5  23.5 96.28  23.5 82  C 23.5 67.72  34.72 56.5  49 56.5  Z " stroke-width="1" stroke="#797979" fill="none" />
  </g>
</svg>