<?xml version="1.0" encoding="utf-8"?>
<svg version="1.1" xmlns:xlink="http://www.w3.org/1999/xlink" width="13px" height="13px" viewBox="342 386  13 13" xmlns="http://www.w3.org/2000/svg">
  <path d="M 348.5 386  C 352.14 386  355 388.86  355 392.5  C 355 396.14  352.14 399  348.5 399  C 344.86 399  342 396.14  342 392.5  C 342 388.86  344.86 386  348.5 386  Z " fill-rule="nonzero" fill="#ffffff" stroke="none" />
  <path d="M 348.5 386.5  C 351.86 386.5  354.5 389.14  354.5 392.5  C 354.5 395.86  351.86 398.5  348.5 398.5  C 345.14 398.5  342.5 395.86  342.5 392.5  C 342.5 389.14  345.14 386.5  348.5 386.5  Z " stroke-width="1" stroke="#797979" fill="none" />
  <path d="M 348.5 395.75  C 346.68 395.75  345.25 394.32  345.25 392.5  C 345.25 390.68  346.68 389.25  348.5 389.25  C 350.32 389.25  351.75 390.68  351.75 392.5  C 351.75 394.32  350.32 395.75  348.5 395.75  " fill-rule="nonzero" fill="#797979" stroke="none" />
</svg>