<?xml version="1.0" encoding="utf-8"?>
<svg version="1.1" xmlns:xlink="http://www.w3.org/1999/xlink" width="13px" height="13px" viewBox="342 288  13 13" xmlns="http://www.w3.org/2000/svg">
  <path d="M 348.5 288  C 352.14 288  355 290.86  355 294.5  C 355 298.14  352.14 301  348.5 301  C 344.86 301  342 298.14  342 294.5  C 342 290.86  344.86 288  348.5 288  Z " fill-rule="nonzero" fill="#ffffff" stroke="none" />
  <path d="M 348.5 288.5  C 351.86 288.5  354.5 291.14  354.5 294.5  C 354.5 297.86  351.86 300.5  348.5 300.5  C 345.14 300.5  342.5 297.86  342.5 294.5  C 342.5 291.14  345.14 288.5  348.5 288.5  Z " stroke-width="1" stroke="#797979" fill="none" />
  <path d="M 348.5 297.75  C 346.68 297.75  345.25 296.32  345.25 294.5  C 345.25 292.68  346.68 291.25  348.5 291.25  C 350.32 291.25  351.75 292.68  351.75 294.5  C 351.75 296.32  350.32 297.75  348.5 297.75  " fill-rule="nonzero" fill="#797979" stroke="none" />
</svg>