<?xml version="1.0" encoding="utf-8"?>
<svg version="1.1" xmlns:xlink="http://www.w3.org/1999/xlink" width="13px" height="13px" viewBox="247 386  13 13" xmlns="http://www.w3.org/2000/svg">
  <path d="M 253.5 386  C 257.14 386  260 388.86  260 392.5  C 260 396.14  257.14 399  253.5 399  C 249.86 399  247 396.14  247 392.5  C 247 388.86  249.86 386  253.5 386  Z " fill-rule="nonzero" fill="#ffffff" stroke="none" />
  <path d="M 253.5 386.5  C 256.86 386.5  259.5 389.14  259.5 392.5  C 259.5 395.86  256.86 398.5  253.5 398.5  C 250.14 398.5  247.5 395.86  247.5 392.5  C 247.5 389.14  250.14 386.5  253.5 386.5  Z " stroke-width="1" stroke="#797979" fill="none" />
  <path d="M 253.5 395.75  C 251.68 395.75  250.25 394.32  250.25 392.5  C 250.25 390.68  251.68 389.25  253.5 389.25  C 255.32 389.25  256.75 390.68  256.75 392.5  C 256.75 394.32  255.32 395.75  253.5 395.75  " fill-rule="nonzero" fill="#797979" stroke="none" />
</svg>