<?xml version="1.0" encoding="utf-8"?>
<svg version="1.1" xmlns:xlink="http://www.w3.org/1999/xlink" width="13px" height="13px" viewBox="342 347  13 13" xmlns="http://www.w3.org/2000/svg">
  <path d="M 348.5 347  C 352.14 347  355 349.86  355 353.5  C 355 357.14  352.14 360  348.5 360  C 344.86 360  342 357.14  342 353.5  C 342 349.86  344.86 347  348.5 347  Z " fill-rule="nonzero" fill="#f0f0f0" stroke="none" />
  <path d="M 348.5 347.5  C 351.86 347.5  354.5 350.14  354.5 353.5  C 354.5 356.86  351.86 359.5  348.5 359.5  C 345.14 359.5  342.5 356.86  342.5 353.5  C 342.5 350.14  345.14 347.5  348.5 347.5  Z " stroke-width="1" stroke="#797979" fill="none" />
  <path d="M 348.5 356.75  C 346.68 356.75  345.25 355.32  345.25 353.5  C 345.25 351.68  346.68 350.25  348.5 350.25  C 350.32 350.25  351.75 351.68  351.75 353.5  C 351.75 355.32  350.32 356.75  348.5 356.75  " fill-rule="nonzero" fill="#797979" stroke="none" />
</svg>