<?xml version="1.0" encoding="utf-8"?>
<svg version="1.1" xmlns:xlink="http://www.w3.org/1999/xlink" width="13px" height="13px" viewBox="247 347  13 13" xmlns="http://www.w3.org/2000/svg">
  <path d="M 253.5 347  C 257.14 347  260 349.86  260 353.5  C 260 357.14  257.14 360  253.5 360  C 249.86 360  247 357.14  247 353.5  C 247 349.86  249.86 347  253.5 347  Z " fill-rule="nonzero" fill="#f0f0f0" stroke="none" />
  <path d="M 253.5 347.5  C 256.86 347.5  259.5 350.14  259.5 353.5  C 259.5 356.86  256.86 359.5  253.5 359.5  C 250.14 359.5  247.5 356.86  247.5 353.5  C 247.5 350.14  250.14 347.5  253.5 347.5  Z " stroke-width="1" stroke="#797979" fill="none" />
  <path d="M 253.5 356.75  C 251.68 356.75  250.25 355.32  250.25 353.5  C 250.25 351.68  251.68 350.25  253.5 350.25  C 255.32 350.25  256.75 351.68  256.75 353.5  C 256.75 355.32  255.32 356.75  253.5 356.75  " fill-rule="nonzero" fill="#797979" stroke="none" />
</svg>